nColumns=28
nRows=73
DataType=double
version=3
OpenSimVersion=4.1
endheader
time	ground_force_1_vx	ground_force_1_vy	ground_force_1_vz	ground_force_1_px	ground_force_1_py	ground_force_1_pz	ground_force_1_mx	ground_force_1_my	ground_force_1_mz	ground_force_2_vx	ground_force_2_vy	ground_force_2_vz	ground_force_2_px	ground_force_2_py	ground_force_2_pz	ground_force_2_mx	ground_force_2_my	ground_force_2_mz	ground_force_3_vx	ground_force_3_vy	ground_force_3_vz	ground_force_3_px	ground_force_3_py	ground_force_3_pz	ground_force_3_mx	ground_force_3_my	ground_force_3_mz
6.73	-0.354041	324.074	-38.3311	-0.251694	0.006	-0.408718	0	-1.95398	0	-0.601827	310.996	36.4126	-0.249109	0.006	-0.787314	0	3.10185	0	0	0	0	0	0	0	0	0	0
6.74	-0.184453	324.393	-38.376	-0.251922	0.006	-0.40881	0	-1.94051	0	-0.553083	312.296	36.6167	-0.249246	0.006	-0.787404	0	3.11567	0	0	0	0	0	0	0	0	0	0
6.75	0.0656293	325.006	-38.4372	-0.252226	0.006	-0.408913	0	-1.92736	0	-0.444444	314.075	36.8624	-0.249453	0.006	-0.787484	0	3.12889	0	0	0	0	0	0	0	0	0	0
6.76	0.403055	325.908	-38.513	-0.25261	0.006	-0.40903	0	-1.915	0	-0.280429	316.363	37.1589	-0.24973	0.006	-0.787559	0	3.14172	0	0	0	0	0	0	0	0	0	0
6.77	0.828608	327.089	-38.6025	-0.253075	0.006	-0.409159	0	-1.9039	0	-0.0699989	319.175	37.5156	-0.250072	0.006	-0.78763	0	3.15419	0	0	0	0	0	0	0	0	0	0
6.78	1.33602	328.532	-38.7065	-0.253615	0.006	-0.409298	0	-1.8945	0	0.173638	322.509	37.9414	-0.250471	0.006	-0.787699	0	3.16645	0	0	0	0	0	0	0	0	0	0
6.79	1.9131	330.209	-38.8268	-0.254223	0.006	-0.409446	0	-1.88723	0	0.433833	326.338	38.4429	-0.250919	0.006	-0.78777	0	3.17874	0	0	0	0	0	0	0	0	0	0
6.8	2.5433	332.079	-38.9664	-0.25489	0.006	-0.4096	0	-1.88241	0	0.692476	330.61	39.0243	-0.251401	0.006	-0.787845	0	3.19136	0	0	0	0	0	0	0	0	0	0
6.81	3.20766	334.088	-39.1296	-0.255603	0.006	-0.409755	0	-1.88026	0	0.932812	335.25	39.6857	-0.251906	0.006	-0.787924	0	3.20441	0	0	0	0	0	0	0	0	0	0
6.82	3.88705	336.169	-39.3222	-0.25635	0.006	-0.409906	0	-1.88081	0	1.14126	340.156	40.423	-0.252422	0.006	-0.788009	0	3.21765	0	0	0	0	0	0	0	0	0	0
6.83	4.5648	338.247	-39.5505	-0.257119	0.006	-0.41005	0	-1.88391	0	1.30822	345.207	41.227	-0.25294	0.006	-0.788098	0	3.2307	0	0	0	0	0	0	0	0	0	0
6.84	5.22767	340.242	-39.8197	-0.257899	0.006	-0.410182	0	-1.88903	0	1.42757	350.274	42.0838	-0.25345	0.006	-0.788188	0	3.24277	0	0	0	0	0	0	0	0	0	0
6.85	5.86562	342.079	-40.1322	-0.258678	0.006	-0.410301	0	-1.8953	0	1.49669	355.223	42.975	-0.253947	0.006	-0.788277	0	3.25277	0	0	0	0	0	0	0	0	0	0
6.86	6.47037	343.69	-40.4864	-0.259449	0.006	-0.410406	0	-1.90158	0	1.51656	359.929	43.8794	-0.254426	0.006	-0.78836	0	3.25948	0	0	0	0	0	0	0	0	0	0
6.87	7.0345	345.02	-40.8765	-0.260202	0.006	-0.410498	0	-1.90649	0	1.49074	364.282	44.7743	-0.254885	0.006	-0.788434	0	3.26172	0	0	0	0	0	0	0	0	0	0
6.88	7.55251	346.025	-41.292	-0.26093	0.006	-0.410579	0	-1.90857	0	1.42407	368.19	45.6376	-0.255321	0.006	-0.788496	0	3.25841	0	0	0	0	0	0	0	0	0	0
6.89	8.02203	346.678	-41.7193	-0.261628	0.006	-0.410655	0	-1.90643	0	1.32198	371.577	46.4492	-0.255733	0.006	-0.788541	0	3.24866	0	0	0	0	0	0	0	0	0	0
6.9	8.44358	346.965	-42.1432	-0.26229	0.006	-0.410729	0	-1.89882	0	1.19119	374.387	47.1927	-0.256117	0.006	-0.788568	0	3.23201	0	0	0	0	0	0	0	0	0	0
6.91	8.8186	346.885	-42.5498	-0.26291	0.006	-0.410805	0	-1.88473	0	1.04038	376.584	47.8576	-0.256472	0.006	-0.788575	0	3.20828	0	0	0	0	0	0	0	0	0	0
6.92	9.14766	346.452	-42.9275	-0.26348	0.006	-0.410887	0	-1.86352	0	0.880133	378.158	48.44	-0.256798	0.006	-0.788563	0	3.17761	0	0	0	0	0	0	0	0	0	0
6.93	9.42999	345.69	-43.2688	-0.263993	0.006	-0.410977	0	-1.83489	0	0.721874	379.123	48.9423	-0.257094	0.006	-0.788531	0	3.14051	0	0	0	0	0	0	0	0	0	0
6.94	9.66348	344.638	-43.5702	-0.264444	0.006	-0.411075	0	-1.79887	0	0.576513	379.516	49.3708	-0.257362	0.006	-0.788482	0	3.09778	0	0	0	0	0	0	0	0	0	0
6.95	9.84453	343.343	-43.8309	-0.264827	0.006	-0.411182	0	-1.75563	0	0.453435	379.387	49.7351	-0.257603	0.006	-0.788419	0	3.05057	0	0	0	0	0	0	0	0	0	0
6.96	9.96955	341.855	-44.052	-0.265138	0.006	-0.411296	0	-1.70558	0	0.360366	378.796	50.0456	-0.257821	0.006	-0.788343	0	3.00024	0	0	0	0	0	0	0	0	0	0
6.97	10.0373	340.217	-44.2351	-0.265377	0.006	-0.411417	0	-1.64951	0	0.303107	377.803	50.3129	-0.25802	0.006	-0.788258	0	2.94835	0	0	0	0	0	0	0	0	0	0
6.98	10.0519	338.46	-44.3827	-0.265549	0.006	-0.411543	0	-1.58853	0	0.28364	376.465	50.5461	-0.258201	0.006	-0.788168	0	2.8965	0	0	0	0	0	0	0	0	0	0
6.99	10.0236	336.604	-44.497	-0.265661	0.006	-0.411672	0	-1.52388	0	0.299188	374.831	50.7514	-0.258365	0.006	-0.788075	0	2.84633	0	0	0	0	0	0	0	0	0	0
7	9.96661	334.657	-44.5807	-0.265722	0.006	-0.4118	0	-1.45693	0	0.343979	372.941	50.9317	-0.258515	0.006	-0.787983	0	2.79943	0	0	0	0	0	0	0	0	0	0
7.01	9.89473	332.619	-44.6379	-0.265738	0.006	-0.411923	0	-1.38905	0	0.411471	370.831	51.0874	-0.258651	0.006	-0.787894	0	2.75737	0	0	0	0	0	0	0	0	0	0
7.02	9.81847	330.486	-44.6736	-0.265716	0.006	-0.412036	0	-1.32159	0	0.495544	368.527	51.2164	-0.258773	0.006	-0.787813	0	2.72172	0	0	0	0	0	0	0	0	0	0
7.03	9.74528	328.253	-44.6948	-0.265659	0.006	-0.412133	0	-1.25584	0	0.591491	366.05	51.3174	-0.258885	0.006	-0.787742	0	2.69389	0	0	0	0	0	0	0	0	0	0
7.04	9.68097	325.914	-44.7097	-0.26557	0.006	-0.41221	0	-1.19308	0	0.696511	363.419	51.3912	-0.258989	0.006	-0.787684	0	2.67518	0	0	0	0	0	0	0	0	0	0
7.05	9.6297	323.464	-44.7265	-0.265451	0.006	-0.41226	0	-1.13443	0	0.809038	360.646	51.4418	-0.259091	0.006	-0.787641	0	2.66666	0	0	0	0	0	0	0	0	0	0
7.06	9.59368	320.899	-44.752	-0.265305	0.006	-0.412279	0	-1.08084	0	0.927434	357.745	51.4761	-0.259196	0.006	-0.787613	0	2.66908	0	0	0	0	0	0	0	0	0	0
7.07	9.57266	318.219	-44.7917	-0.265134	0.006	-0.412264	0	-1.03304	0	1.04904	354.729	51.5012	-0.259305	0.006	-0.787602	0	2.68271	0	0	0	0	0	0	0	0	0	0
7.08	9.56342	315.424	-44.8487	-0.26494	0.006	-0.412211	0	-0.991478	0	1.17075	351.613	51.5232	-0.259421	0.006	-0.787607	0	2.70745	0	0	0	0	0	0	0	0	0	0
7.09	9.56058	312.509	-44.9235	-0.264722	0.006	-0.412118	0	-0.956409	0	1.29	348.415	51.5465	-0.259544	0.006	-0.787627	0	2.74279	0	0	0	0	0	0	0	0	0	0
7.1	9.55863	309.464	-45.014	-0.264479	0.006	-0.411983	0	-0.927904	0	1.4049	345.149	51.5729	-0.259673	0.006	-0.787659	0	2.78774	0	0	0	0	0	0	0	0	0	0
7.11	9.55238	306.269	-45.1144	-0.264212	0.006	-0.41181	0	-0.905848	0	1.51376	341.821	51.6013	-0.259809	0.006	-0.7877	0	2.84082	0	0	0	0	0	0	0	0	0	0
7.12	9.53634	302.901	-45.2143	-0.26392	0.006	-0.4116	0	-0.889847	0	1.61506	338.42	51.6277	-0.259953	0.006	-0.787746	0	2.90009	0	0	0	0	0	0	0	0	0	0
7.13	9.50305	299.33	-45.2983	-0.263599	0.006	-0.411358	0	-0.879147	0	1.70727	334.927	51.6465	-0.260103	0.006	-0.787793	0	2.96321	0	0	0	0	0	0	0	0	0	0
7.14	9.44111	295.524	-45.3492	-0.263246	0.006	-0.411091	0	-0.872724	0	1.78737	331.31	51.6526	-0.260254	0.006	-0.787837	0	3.02752	0	0	0	0	0	0	0	0	0	0
7.15	9.33371	291.46	-45.352	-0.262851	0.006	-0.410804	0	-0.869395	0	1.84966	327.534	51.6419	-0.2604	0.006	-0.787877	0	3.09008	0	0	0	0	0	0	0	0	0	0
7.16	9.15904	287.129	-45.2976	-0.262397	0.006	-0.410499	0	-0.867905	0	1.88645	323.565	51.6125	-0.260529	0.006	-0.787911	0	3.1481	0	0	0	0	0	0	0	0	0	0
7.17	8.89426	282.54	-45.1844	-0.261868	0.006	-0.410177	0	-0.867098	0	1.88885	319.372	51.5641	-0.260629	0.006	-0.787939	0	3.19904	0	0	0	0	0	0	0	0	0	0
7.18	8.52199	277.722	-45.0174	-0.261248	0.006	-0.409839	0	-0.86588	0	1.84725	314.932	51.4951	-0.260688	0.006	-0.78796	0	3.24055	0	0	0	0	0	0	0	0	0	0
7.19	8.03534	272.721	-44.8044	-0.260525	0.006	-0.409484	0	-0.863112	0	1.75248	310.226	51.4005	-0.26069	0.006	-0.78797	0	3.27058	0	0	0	0	0	0	0	0	0	0
7.2	7.43949	267.599	-44.5538	-0.259697	0.006	-0.409115	0	-0.857525	0	1.59754	305.241	51.271	-0.260628	0.006	-0.787968	0	3.28748	0	0	0	0	0	0	0	0	0	0
7.21	6.75183	262.423	-44.2726	-0.258768	0.006	-0.408733	0	-0.847725	0	1.37993	299.969	51.0932	-0.260494	0.006	-0.787949	0	3.28998	0	0	0	0	0	0	0	0	0	0
7.22	6.00194	257.262	-43.9666	-0.257746	0.006	-0.408342	0	-0.832216	0	1.10517	294.415	50.852	-0.260292	0.006	-0.787907	0	3.27739	0	0	0	0	0	0	0	0	0	0
7.23	5.22783	252.183	-43.6406	-0.256642	0.006	-0.407945	0	-0.809454	0	0.78812	288.597	50.5318	-0.260024	0.006	-0.787835	0	3.24957	0	0	0	0	0	0	0	0	0	0
7.24	4.46644	247.247	-43.2977	-0.255459	0.006	-0.407544	0	-0.778063	0	0.449398	282.552	50.1196	-0.259694	0.006	-0.78773	0	3.20681	0	0	0	0	0	0	0	0	0	0
7.25	3.7425	242.499	-42.9395	-0.254191	0.006	-0.407139	0	-0.737083	0	0.109237	276.331	49.6056	-0.259301	0.006	-0.78759	0	3.14972	0	0	0	0	0	0	0	0	0	0
7.26	3.06422	237.962	-42.5657	-0.252822	0.006	-0.406729	0	-0.686208	0	-0.21648	269.987	48.984	-0.258841	0.006	-0.787415	0	3.07933	0	0	0	0	0	0	0	0	0	0
7.27	2.42666	233.644	-42.1759	-0.251333	0.006	-0.40631	0	-0.625887	0	-0.516133	263.567	48.2537	-0.258311	0.006	-0.787206	0	2.99707	0	0	0	0	0	0	0	0	0	0
7.28	1.81732	229.542	-41.772	-0.249704	0.006	-0.40588	0	-0.557105	0	-0.780152	257.108	47.4203	-0.257714	0.006	-0.786965	0	2.90484	0	0	0	0	0	0	0	0	0	0
7.29	1.22083	225.649	-41.3585	-0.247925	0.006	-0.405433	0	-0.481155	0	-0.999765	250.642	46.4972	-0.257057	0.006	-0.786696	0	2.80515	0	0	0	0	0	0	0	0	0	0
7.3	0.624042	221.961	-40.9431	-0.245991	0.006	-0.404967	0	-0.399577	0	-1.1682	244.199	45.5052	-0.256352	0.006	-0.786407	0	2.70072	0	0	0	0	0	0	0	0	0	0
7.31	0.0213553	218.487	-40.5358	-0.243915	0.006	-0.40448	0	-0.31414	0	-1.28194	237.816	44.4711	-0.255611	0.006	-0.786106	0	2.59418	0	0	0	0	0	0	0	0	0	0
7.32	-0.581713	215.251	-40.1475	-0.241721	0.006	-0.403969	0	-0.226722	0	-1.33957	231.543	43.4252	-0.254846	0.006	-0.785802	0	2.48791	0	0	0	0	0	0	0	0	0	0
7.33	-1.16566	212.292	-39.789	-0.23945	0.006	-0.403439	0	-0.139234	0	-1.34043	225.449	42.3977	-0.254058	0.006	-0.785509	0	2.38401	0	0	0	0	0	0	0	0	0	0
7.34	-1.69896	209.667	-39.4726	-0.237151	0.006	-0.402894	0	-0.053525	0	-1.28651	219.625	41.4154	-0.253241	0.006	-0.785242	0	2.28441	0	0	0	0	0	0	0	0	0	0
7.35	-2.14592	207.445	-39.2123	-0.23488	0.006	-0.40234	0	0.028748	0	-1.18424	214.179	40.4983	-0.252383	0.006	-0.785014	0	2.19083	0	0	0	0	0	0	0	0	0	0
7.36	-2.47649	205.706	-39.0211	-0.232689	0.006	-0.401784	0	0.106174	0	-1.04352	209.238	39.6592	-0.251469	0.006	-0.784837	0	2.10485	0	0	0	0	0	0	0	0	0	0
7.37	-2.67269	204.522	-38.9078	-0.23062	0.006	-0.401237	0	0.177631	0	-0.877041	204.927	38.9041	-0.250483	0.006	-0.784719	0	2.02779	0	0	0	0	0	0	0	0	0	0
7.38	-2.72958	203.957	-38.8742	-0.228702	0.006	-0.400709	0	0.242147	0	-0.699759	201.371	38.2327	-0.249412	0.006	-0.784667	0	1.96071	0	0	0	0	0	0	0	0	0	0
7.39	-2.65297	204.06	-38.9143	-0.226949	0.006	-0.400212	0	0.2988	0	-0.525472	198.678	37.6406	-0.248248	0.006	-0.784686	0	1.90465	0	0	0	0	0	0	0	0	0	0
7.4	-2.45683	204.875	-39.0172	-0.225363	0.006	-0.399756	0	0.346812	0	-0.364057	196.936	37.1223	-0.246995	0.006	-0.784776	0	1.86082	0	0	0	0	0	0	0	0	0	0
7.41	-2.16092	206.431	-39.1708	-0.223933	0.006	-0.399349	0	0.385758	0	-0.22151	196.213	36.6753	-0.245661	0.006	-0.784939	0	1.83054	0	0	0	0	0	0	0	0	0	0
7.42	-1.78892	208.744	-39.3653	-0.222642	0.006	-0.398995	0	0.415529	0	-0.102862	196.553	36.3027	-0.244254	0.006	-0.785175	0	1.81499	0	0	0	0	0	0	0	0	0	0
7.43	-1.36684	211.813	-39.5951	-0.221467	0.006	-0.398695	0	0.436159	0	-0.0158516	197.973	36.0136	-0.242784	0.006	-0.785484	0	1.81495	0	0	0	0	0	0	0	0	0	0
7.44	-0.921773	215.625	-39.8591	-0.220383	0.006	-0.398448	0	0.447706	0	0.0300455	200.457	35.822	-0.241258	0.006	-0.785866	0	1.83055	0	0	0	0	0	0	0	0	0	0
7.45	-0.479908	220.15	-40.1597	-0.219368	0.006	-0.398249	0	0.450016	0	0.0260393	203.954	35.7449	-0.23968	0.006	-0.78632	0	1.86125	0	0	0	0	0	0	0	0	0	0
